<svg width="17" height="18" viewBox="0 0 17 18" fill="none" xmlns="http://www.w3.org/2000/svg">
<path d="M10.666 0.25C9.67954 0.250885 8.70726 0.48506 7.82856 0.933406C6.94985 1.38175 6.18964 2.03156 5.60999 2.82977C5.03034 3.62798 4.64769 4.55196 4.49327 5.52627C4.33885 6.50059 4.41705 7.49761 4.72149 8.43594L0.223828 12.9328C0.165807 12.9909 0.119798 13.0598 0.0884306 13.1357C0.057063 13.2116 0.0409513 13.2929 0.0410158 13.375V16.5C0.0410158 16.6658 0.106864 16.8247 0.224074 16.9419C0.341284 17.0592 0.500256 17.125 0.666016 17.125H3.79102C3.95678 17.125 4.11575 17.0592 4.23296 16.9419C4.35017 16.8247 4.41602 16.6658 4.41602 16.5V15.25H5.66602C5.83178 15.25 5.99075 15.1842 6.10796 15.0669C6.22517 14.9497 6.29102 14.7908 6.29102 14.625V13.375H7.54102C7.62312 13.3751 7.70442 13.359 7.7803 13.3276C7.85617 13.2962 7.92512 13.2502 7.9832 13.1922L8.73008 12.4445C9.58908 12.7234 10.4983 12.8128 11.3952 12.7066C12.2921 12.6004 13.1553 12.3011 13.9254 11.8292C14.6954 11.3574 15.3541 10.7243 15.856 9.97343C16.358 9.2226 16.6912 8.37191 16.8328 7.47994C16.9744 6.58797 16.921 5.6759 16.6763 4.80655C16.4316 3.93719 16.0014 3.13119 15.4153 2.44405C14.8292 1.75691 14.1011 1.20496 13.2813 0.826195C12.4614 0.447431 11.5692 0.250854 10.666 0.25ZM12.2285 6.1875C11.9813 6.1875 11.7396 6.11419 11.5341 5.97684C11.3285 5.83949 11.1683 5.64426 11.0737 5.41585C10.9791 5.18745 10.9543 4.93611 11.0025 4.69364C11.0508 4.45116 11.1698 4.22843 11.3446 4.05362C11.5194 3.8788 11.7422 3.75975 11.9847 3.71152C12.2271 3.66329 12.4785 3.68804 12.7069 3.78265C12.9353 3.87726 13.1305 4.03748 13.2679 4.24304C13.4052 4.4486 13.4785 4.69027 13.4785 4.9375C13.4785 5.26902 13.3468 5.58696 13.1124 5.82138C12.878 6.0558 12.56 6.1875 12.2285 6.1875Z" fill="#7C7C92"/>
</svg>
